HIERARCHY
ROOT SpineBase
{
  OFFSET 0.000000 0.000000 0.000000
  CHANNELS 6 Xposition Yposition Zposition Zrotation Xrotation Yrotation
  JOINT SpineMid
  {
    OFFSET 0.000000 34.207580 0.000000
    CHANNELS 3 Zrotation Xrotation Yrotation
    JOINT SpineShoulder
    {
      OFFSET -0.032453 25.549342 -0.737170
      CHANNELS 3 Zrotation Xrotation Yrotation
      JOINT Neck
      {
        OFFSET -0.019514 8.487491 -0.557515
        CHANNELS 3 Zrotation Xrotation Yrotation
        JOINT Head
        {
          OFFSET -0.294758 11.788169 0.912498
          CHANNELS 3 Zrotation Xrotation Yrotation
          End Site
          {
            OFFSET 0 0 0
          }
        }
      }
      JOINT ShoulderLeft
      {
        OFFSET -15.514730 -7.357108 -4.672434
        CHANNELS 3 Zrotation Xrotation Yrotation
        JOINT ElbowLeft
        {
          OFFSET -3.805321 -24.271520 4.154582
          CHANNELS 3 Zrotation Xrotation Yrotation
          JOINT WristLeft
          {
            OFFSET -0.582088 -18.389464 1.141250
            CHANNELS 3 Zrotation Xrotation Yrotation
            JOINT HandLeft
            {
              OFFSET 1.659580 -7.506541 -0.687507
              CHANNELS 3 Zrotation Xrotation Yrotation
              JOINT HandTipLeft
              {
                OFFSET -2.061173 -8.619829 4.073868
                CHANNELS 3 Zrotation Xrotation Yrotation
                End Site
                {
                  OFFSET 0 0 0
                }
              }
              JOINT ThumbLeft
              {
                OFFSET -2.683031 5.071483 1.849140
                CHANNELS 3 Zrotation Xrotation Yrotation
                End Site
                {
                  OFFSET 0 0 0
                }
              }
            }
          }
        }
      }
      JOINT ShoulderRight
      {
        OFFSET 14.942471 -5.818915 -6.048302
        CHANNELS 3 Zrotation Xrotation Yrotation
        JOINT ElbowRight
        {
          OFFSET 6.633307 -23.880229 3.018580
          CHANNELS 3 Zrotation Xrotation Yrotation
          JOINT WristRight
          {
            OFFSET 1.740101 -19.647767 7.355109
            CHANNELS 3 Zrotation Xrotation Yrotation
            JOINT HandRight
            {
              OFFSET -1.250915 -5.218515 4.777695
              CHANNELS 3 Zrotation Xrotation Yrotation
              JOINT HandTipRight
              {
                OFFSET 0.373938 -6.106663 2.112819
                CHANNELS 3 Zrotation Xrotation Yrotation
                End Site
                {
                  OFFSET 0 0 0
                }
              }
              JOINT ThumbRight
              {
                OFFSET 1.662642 -2.255752 0.069536
                CHANNELS 3 Zrotation Xrotation Yrotation
                End Site
                {
                  OFFSET 0 0 0
                }
              }
            }
          }
        }
      }
    }
  }
  JOINT HipLeft
  {
    OFFSET -7.907670 1.252722 -2.900428
    CHANNELS 3 Zrotation Xrotation Yrotation
    JOINT KneeLeft
    {
      OFFSET -3.297850 -27.941202 -1.486499
      CHANNELS 3 Zrotation Xrotation Yrotation
      JOINT AnkleLeft
      {
        OFFSET -0.469961 -35.646679 0.418994
        CHANNELS 3 Zrotation Xrotation Yrotation
        JOINT FootLeft
        {
          OFFSET -0.275331 -2.697642 -11.475946
          CHANNELS 3 Zrotation Xrotation Yrotation
          End Site
          {
            OFFSET 0 0 0
          }
        }
      }
    }
  }
  JOINT HipRight
  {
    OFFSET 7.544989 1.415674 -3.331076
    CHANNELS 3 Zrotation Xrotation Yrotation
    JOINT KneeRight
    {
      OFFSET 3.402788 -25.032682 -0.834462
      CHANNELS 3 Zrotation Xrotation Yrotation
      JOINT AnkleRight
      {
        OFFSET -0.131096 -35.664565 0.295447
        CHANNELS 3 Zrotation Xrotation Yrotation
        JOINT FootRight
        {
          OFFSET 0.466425 -4.429133 -2.297537
          CHANNELS 3 Zrotation Xrotation Yrotation
          End Site
          {
            OFFSET 0 0 0
          }
        }
      }
    }
  }
}
MOTION
Frames: 10
Frame Time: 0.033333
16.060353 69.185547 286.007996 -0.000000 0.000000 1.596354 -0.000000 0.000000 -1.596354 -0.000000 0.000000 0.000000 -0.000000 0.000000 0.000000 0.000000 0.000000 0.000000 -0.000000 0.000000 0.000000 -0.000000 0.000000 0.000000 -0.000000 0.000000 0.000000 -0.000000 0.000000 0.000000 0.000000 0.000000 0.000000 0.000000 0.000000 0.000000 -0.000000 0.000000 0.000000 -0.000000 0.000000 0.000000 -0.000000 0.000000 0.000000 -0.000000 0.000000 0.000000 0.000000 0.000000 0.000000 0.000000 0.000000 0.000000 -0.000000 0.000000 -1.596354 -0.000000 0.000000 0.000000 -0.000000 0.000000 0.000000 0.000000 0.000000 0.000000 -0.000000 0.000000 -1.596354 -0.000000 0.000000 0.000000 -0.000000 0.000000 0.000000 0.000000 0.000000 0.000000
16.145419 69.214776 286.292451 -0.084205 -0.030900 1.574058 0.085022 0.028576 -1.574102 -0.000000 0.000000 0.000000 0.251916 -0.844957 -0.038791 0.000000 0.000000 0.000000 -0.000000 0.000000 0.000000 -0.000000 0.000000 0.000000 -2.558512 -3.921094 -0.726314 3.884501 6.319408 0.521116 0.000000 0.000000 0.000000 0.000000 0.000000 0.000000 -0.000000 0.000000 0.000000 -0.965693 0.315410 -0.331510 1.617466 8.327701 -1.252444 -0.467020 -8.649223 1.508341 0.000000 0.000000 0.000000 0.000000 0.000000 0.000000 0.085022 0.028576 -1.574102 -0.000000 0.000000 0.000000 -0.000000 0.000000 0.000000 0.000000 0.000000 0.000000 0.085022 0.028576 -1.574102 -0.000000 0.000000 0.000000 -1.490890 32.567617 4.114207 0.000000 0.000000 0.000000
16.228124 69.236836 286.547808 -0.157192 -0.065269 1.562571 0.158913 0.060958 -1.562745 -0.000000 0.000000 0.000000 0.409204 -1.511184 -0.064127 0.000000 0.000000 0.000000 -0.000000 0.000000 0.000000 -0.000000 0.000000 0.000000 -5.177837 -7.581316 -1.572474 7.720354 12.366872 0.599340 0.000000 0.000000 0.000000 0.000000 0.000000 0.000000 -1.119806 0.249968 -0.069885 -0.636315 0.640146 -0.499927 3.261264 15.878988 -2.543162 0.020212 -16.571216 3.342502 0.000000 0.000000 0.000000 0.000000 0.000000 0.000000 0.158913 0.060958 -1.562745 -0.000000 0.000000 0.000000 0.269477 0.028838 -1.148394 0.000000 0.000000 0.000000 0.158913 0.060958 -1.562745 -0.000000 0.000000 0.000000 -3.247846 44.628908 6.581114 0.000000 0.000000 0.000000
16.308467 69.251726 286.774067 -0.218898 -0.103097 1.561974 0.221628 0.097091 -1.562358 -0.000000 0.000000 0.000000 0.471277 -1.996159 -0.078286 0.000000 0.000000 0.000000 -0.787132 -0.203156 -0.104137 0.786767 0.204567 0.101337 -7.754890 -10.793738 -2.473919 11.443636 17.843056 0.277601 0.000000 0.000000 0.000000 0.000000 0.000000 0.000000 -1.564134 0.443013 -0.068916 -0.804761 1.282601 -0.640330 4.863242 22.027247 -3.750629 -0.381973 -22.877664 4.411906 0.000000 0.000000 0.000000 0.000000 0.000000 0.000000 0.020010 0.996161 -1.653779 0.227507 -0.892870 0.095117 0.372040 0.032433 -1.584619 0.000000 0.000000 0.000000 0.221628 0.097091 -1.562358 -0.000000 0.000000 0.000000 -4.621732 49.778331 8.189513 0.000000 0.000000 0.000000
16.386449 69.259448 286.971228 -0.269275 -0.144374 1.572307 0.273136 0.136929 -1.572973 -0.000000 0.000000 0.000000 0.437798 -2.298247 -0.082702 0.000000 0.000000 0.000000 -0.930024 -0.284754 -0.116665 0.929453 0.286610 0.112030 -10.170339 -13.400454 -3.340967 14.948587 22.471993 -0.348586 0.000000 0.000000 0.000000 0.000000 0.000000 0.000000 -1.931473 0.680957 -0.043775 -0.871332 2.142045 -0.704754 6.311484 26.416003 -4.749623 -1.265045 -27.319721 4.765280 0.000000 0.000000 0.000000 0.000000 0.000000 0.000000 0.003769 1.243249 -1.683357 0.301802 -1.097914 0.116520 0.452992 0.029500 -1.928681 0.000000 0.000000 0.000000 -0.217606 0.781918 -1.466238 0.507114 -0.632191 -0.100002 -5.682570 52.029502 9.287227 0.000000 0.000000 0.000000
16.462071 69.260001 287.139292 -0.308281 -0.189085 1.593577 0.313422 0.180436 -1.594579 -0.000000 0.000000 0.000000 0.308677 -2.416536 -0.077939 0.000000 0.000000 0.000000 -1.013134 -0.373432 -0.117949 1.012385 0.375458 0.111330 -12.302934 -15.288808 -4.072253 18.083856 26.030701 -1.132075 0.000000 0.000000 0.000000 0.000000 0.000000 0.000000 -2.222009 0.963552 0.005470 -0.834832 3.220547 -0.692959 7.489555 28.948381 -5.435004 -2.720896 -29.806376 4.302069 0.000000 0.000000 0.000000 0.000000 0.000000 0.000000 -0.024098 1.449429 -1.718447 0.375508 -1.258273 0.132792 0.512277 0.020427 -2.180529 0.000000 0.000000 0.000000 -0.317961 0.900334 -1.471414 1.516944 -0.722826 -0.095178 -7.389139 52.618542 10.030529 0.000000 0.000000 0.000000
16.557691 69.253901 287.301370 -0.346358 -0.263456 1.654562 0.353824 0.253341 -1.656140 -0.000000 0.000000 0.000000 0.107569 -2.113370 -0.059276 0.000000 0.000000 0.000000 -1.006161 -0.504687 -0.097328 1.005342 0.506318 0.088455 -14.575569 -16.480890 -4.639426 21.109643 28.888207 -2.187051 0.000000 0.000000 0.000000 0.000000 0.000000 0.000000 -2.492119 1.367874 0.095387 -0.560369 5.336880 -0.491784 8.084716 27.910685 -5.492347 -6.478846 -30.233446 1.405741 0.000000 0.000000 0.000000 0.000000 0.000000 0.000000 -0.088419 1.667478 -1.788223 0.486292 -1.399595 0.145436 0.562025 -0.002660 -2.391712 0.000000 0.000000 0.000000 -0.475626 1.018220 -1.517779 0.849481 -0.742534 -0.123652 -5.629821 48.252689 8.824883 0.000000 0.000000 0.000000
16.640352 69.242967 287.412687 -0.380013 -0.302517 1.754511 0.389103 0.290733 -1.756502 -0.000000 0.000000 0.000000 -0.061585 -1.905268 -0.043959 0.000000 0.000000 0.000000 -0.974128 -0.611773 -0.075861 0.973372 0.612974 0.065454 -16.291740 -16.602338 -4.800747 24.080569 29.593914 -2.811125 0.000000 0.000000 0.000000 0.000000 0.000000 0.000000 -2.615342 1.800391 0.212363 -0.062907 7.670956 -0.164063 7.694492 24.915850 -5.618121 -7.256773 -28.091999 0.959511 0.000000 0.000000 0.000000 0.000000 0.000000 0.000000 -0.127161 1.775313 -1.890435 0.565130 -1.466664 0.150475 0.574515 -0.019084 -2.444613 0.000000 0.000000 0.000000 -0.612835 1.005304 -1.618000 1.021773 -0.685842 -0.121054 -6.238408 45.680699 9.012216 0.000000 0.000000 0.000000
16.700713 69.225203 287.485482 -0.394058 -0.323393 1.806127 0.404061 0.310805 -1.808335 -0.000000 0.000000 0.000000 -0.290893 -1.794099 -0.026936 0.000000 0.000000 0.000000 -0.835706 -0.729524 -0.033919 0.835342 0.729941 0.023277 -16.251816 -15.591602 -4.402101 23.426285 27.879589 -2.558903 0.000000 0.000000 0.000000 0.000000 0.000000 0.000000 -2.661051 2.190578 0.325904 0.178967 8.927383 -0.027280 8.239387 23.915567 -5.188725 -9.210568 -25.002457 -0.396505 0.000000 0.000000 0.000000 0.000000 0.000000 0.000000 -0.169810 1.820503 -1.940408 0.014940 -0.870707 0.122984 1.178183 -0.654217 -2.399144 0.000000 0.000000 0.000000 -0.743800 0.980216 -1.670260 1.166938 -0.635473 -0.118670 -6.798265 43.542629 9.196966 0.000000 0.000000 0.000000
16.736424 69.189911 287.513364 -0.378919 -0.356053 1.763713 0.389705 0.344214 -1.766061 -0.087252 -0.831865 -0.008273 -0.765392 -0.609513 0.038671 0.000000 0.000000 0.000000 -0.621581 0.029678 0.016743 0.708950 0.801994 -0.009369 -16.286177 -15.409347 -4.332777 22.967542 28.073393 -2.727476 0.000000 0.000000 0.000000 0.000000 0.000000 0.000000 -2.474049 3.440428 0.508245 0.322535 9.313707 -0.003781 8.544940 23.075133 -4.680962 -10.678751 -19.962577 -1.288080 0.000000 0.000000 0.000000 0.000000 0.000000 0.000000 -0.201115 1.816260 -1.892446 -0.042763 -0.734603 0.115141 1.214072 -0.776004 -2.240826 0.000000 0.000000 0.000000 -0.868882 1.011870 -1.622913 1.914136 -0.062704 -0.114184 -7.965248 41.519900 9.377184 0.000000 0.000000 0.000000
